<mxfile host="app.diagrams.net" agent="Mozilla/5.0 (Windows NT 10.0; Win64; x64) AppleWebKit/537.36 (KHTML, like Gecko) Chrome/136.0.0.0 Safari/537.36" version="27.0.8">
  <diagram name="Sayfa -1" id="Cta2WmPdMaJLgJItLNkb">
    <mxGraphModel dx="1426" dy="743" grid="1" gridSize="10" guides="1" tooltips="1" connect="1" arrows="1" fold="1" page="1" pageScale="1" pageWidth="827" pageHeight="1169" math="0" shadow="0">
      <root>
        <mxCell id="0" />
        <mxCell id="1" parent="0" />
        <mxCell id="OxEVmPB5UnEfBlzt7_fZ-1" value="BaseUnit (Abstract)" style="swimlane;fontStyle=0;childLayout=stackLayout;horizontal=1;startSize=26;fillColor=none;horizontalStack=0;resizeParent=1;resizeParentMax=0;resizeLast=0;collapsible=1;marginBottom=0;whiteSpace=wrap;html=1;" vertex="1" parent="1">
          <mxGeometry x="140" y="100" width="140" height="170" as="geometry" />
        </mxCell>
        <mxCell id="OxEVmPB5UnEfBlzt7_fZ-2" value="+ speed: float" style="text;strokeColor=none;fillColor=none;align=left;verticalAlign=top;spacingLeft=4;spacingRight=4;overflow=hidden;rotatable=0;points=[[0,0.5],[1,0.5]];portConstraint=eastwest;whiteSpace=wrap;html=1;" vertex="1" parent="OxEVmPB5UnEfBlzt7_fZ-1">
          <mxGeometry y="26" width="140" height="26" as="geometry" />
        </mxCell>
        <mxCell id="OxEVmPB5UnEfBlzt7_fZ-3" value="+ health: float" style="text;strokeColor=none;fillColor=none;align=left;verticalAlign=top;spacingLeft=4;spacingRight=4;overflow=hidden;rotatable=0;points=[[0,0.5],[1,0.5]];portConstraint=eastwest;whiteSpace=wrap;html=1;" vertex="1" parent="OxEVmPB5UnEfBlzt7_fZ-1">
          <mxGeometry y="52" width="140" height="26" as="geometry" />
        </mxCell>
        <mxCell id="OxEVmPB5UnEfBlzt7_fZ-4" value="+ weapon: IWeapon&lt;div&gt;&lt;br&gt;&lt;/div&gt;&lt;div&gt;+Move()&lt;br&gt;&lt;div&gt;&lt;br&gt;&lt;div&gt;&lt;br&gt;&lt;/div&gt;&lt;/div&gt;&lt;/div&gt;" style="text;strokeColor=none;fillColor=none;align=left;verticalAlign=top;spacingLeft=4;spacingRight=4;overflow=hidden;rotatable=0;points=[[0,0.5],[1,0.5]];portConstraint=eastwest;whiteSpace=wrap;html=1;" vertex="1" parent="OxEVmPB5UnEfBlzt7_fZ-1">
          <mxGeometry y="78" width="140" height="92" as="geometry" />
        </mxCell>
        <mxCell id="OxEVmPB5UnEfBlzt7_fZ-5" value="&lt;p style=&quot;margin:0px;margin-top:4px;text-align:center;&quot;&gt;&lt;b&gt;Striker Bike (Class)&lt;/b&gt;&lt;/p&gt;" style="verticalAlign=top;align=left;overflow=fill;html=1;whiteSpace=wrap;" vertex="1" parent="1">
          <mxGeometry x="40" y="370" width="140" height="60" as="geometry" />
        </mxCell>
        <mxCell id="OxEVmPB5UnEfBlzt7_fZ-6" style="edgeStyle=orthogonalEdgeStyle;rounded=0;orthogonalLoop=1;jettySize=auto;html=1;entryX=0.5;entryY=0;entryDx=0;entryDy=0;" edge="1" parent="1" source="OxEVmPB5UnEfBlzt7_fZ-4" target="OxEVmPB5UnEfBlzt7_fZ-5">
          <mxGeometry relative="1" as="geometry" />
        </mxCell>
        <mxCell id="OxEVmPB5UnEfBlzt7_fZ-7" value="&lt;p style=&quot;margin:0px;margin-top:4px;text-align:center;&quot;&gt;&lt;b&gt;HeavyTank (Class)&lt;/b&gt;&lt;/p&gt;" style="verticalAlign=top;align=left;overflow=fill;html=1;whiteSpace=wrap;" vertex="1" parent="1">
          <mxGeometry x="220" y="370" width="140" height="60" as="geometry" />
        </mxCell>
        <mxCell id="OxEVmPB5UnEfBlzt7_fZ-8" style="edgeStyle=orthogonalEdgeStyle;rounded=0;orthogonalLoop=1;jettySize=auto;html=1;entryX=0.75;entryY=0;entryDx=0;entryDy=0;" edge="1" parent="1" source="OxEVmPB5UnEfBlzt7_fZ-4" target="OxEVmPB5UnEfBlzt7_fZ-7">
          <mxGeometry relative="1" as="geometry" />
        </mxCell>
        <mxCell id="OxEVmPB5UnEfBlzt7_fZ-9" value="«interface»&lt;br&gt;&lt;b&gt;IWeapon&lt;/b&gt;&lt;div&gt;&lt;b&gt;&lt;br&gt;&lt;/b&gt;&lt;div&gt;&lt;b&gt;+Damage&lt;/b&gt;&lt;/div&gt;&lt;div&gt;&lt;b&gt;&lt;br&gt;&lt;/b&gt;&lt;/div&gt;&lt;div&gt;&lt;b&gt;+AttackRange&lt;/b&gt;&lt;/div&gt;&lt;div&gt;&lt;br&gt;&lt;/div&gt;&lt;div&gt;&lt;b&gt;+AttackRate&lt;/b&gt;&lt;/div&gt;&lt;div&gt;&lt;b&gt;&lt;br&gt;&lt;/b&gt;&lt;/div&gt;&lt;div&gt;&lt;b&gt;+&lt;/b&gt;&lt;span style=&quot;text-align: left; background-color: transparent; color: light-dark(rgb(0, 0, 0), rgb(255, 255, 255));&quot;&gt;Attack()&lt;/span&gt;&lt;/div&gt;&lt;/div&gt;" style="html=1;whiteSpace=wrap;" vertex="1" parent="1">
          <mxGeometry x="400" y="30" width="110" height="180" as="geometry" />
        </mxCell>
        <mxCell id="OxEVmPB5UnEfBlzt7_fZ-10" style="edgeStyle=orthogonalEdgeStyle;rounded=0;orthogonalLoop=1;jettySize=auto;html=1;entryX=1.029;entryY=0.185;entryDx=0;entryDy=0;entryPerimeter=0;" edge="1" parent="1" source="OxEVmPB5UnEfBlzt7_fZ-9" target="OxEVmPB5UnEfBlzt7_fZ-4">
          <mxGeometry relative="1" as="geometry" />
        </mxCell>
      </root>
    </mxGraphModel>
  </diagram>
</mxfile>
